<svg width="24" height="24" xmlns="http://www.w3.org/2000/svg" fill="none">

    <style>
        #bg {
            fill: var(--highligh);
        }
    </style>


 <g>
  <path id="bg" fill="#1C274C" d="m6.40064,17.59938c3.09244,3.0924 8.10625,3.0924 11.19874,0c3.0924,-3.09248 3.0924,-8.10629 0,-11.19874c-3.09248,-3.09244 -8.10629,-3.09244 -11.19874,0c-3.09244,3.09244 -3.09244,8.10625 0,11.19874z" opacity="1"/>
  <path id="icon_1" fill="#1C274C" d="m17.1265,6.87349c-0.2929,-0.29289 -0.7677,-0.29289 -1.0606,0c-0.2929,0.29289 -0.2929,0.76777 0,1.06066c2.2455,2.24555 2.2455,5.88625 0,8.13175c-0.2929,0.2929 -0.2929,0.7677 0,1.0606c0.2929,0.2929 0.7677,0.2929 1.0606,0c2.8313,-2.8313 2.8313,-7.42171 0,-10.25301z"/>
  <path id="icon_2" fill="#1C274C" d="m7.93414,7.93415c0.29289,-0.29289 0.29289,-0.76777 0,-1.06066c-0.2929,-0.29289 -0.76777,-0.29289 -1.06066,0c-2.83131,2.8313 -2.83131,7.42171 0,10.25301c0.29289,0.2929 0.76776,0.2929 1.06066,0c0.29289,-0.2929 0.29289,-0.7677 0,-1.0606c-2.24552,-2.2455 -2.24552,-5.8862 0,-8.13175z"/>
  <path id="icon_3" fill="#1C274C" d="m9.34835,9.34835c1.46445,-1.46446 3.83885,-1.46446 5.30335,0c1.4644,1.46444 1.4644,3.83884 0,5.30334c-1.4645,1.4644 -3.8389,1.4644 -5.30335,0c-1.46447,-1.4645 -1.46447,-3.8389 0,-5.30334zm1.06065,1.06064c0.8787,-0.87866 2.3033,-0.87866 3.182,0c0.8787,0.8787 0.8787,2.3033 0,3.182c-0.8787,0.8787 -2.3033,0.8787 -3.182,0c-0.87867,-0.8787 -0.87867,-2.3033 0,-3.182z" clip-rule="evenodd" fill-rule="evenodd"/>
 </g>
</svg>